<svg width="65" height="214" viewBox="0 0 65 214" fill="none" xmlns="http://www.w3.org/2000/svg">
<path d="M19.6207 213.888C19.8735 213.999 20.1685 213.884 20.2796 213.631L22.089 209.511C22.2 209.258 22.0851 208.963 21.8323 208.852C21.5794 208.741 21.2845 208.856 21.1734 209.109L19.565 212.772L15.9026 211.163C15.6498 211.052 15.3548 211.167 15.2438 211.42C15.1327 211.673 15.2477 211.968 15.5005 212.079L19.6207 213.888ZM1.32557 107.891L0.834904 107.795L0.825605 107.897L1.32557 107.891ZM23.0417 43.474L22.6351 43.1831L22.6026 43.2349L23.0417 43.474ZM35.5633 25.9764L35.2141 25.6185L35.1567 25.6854L35.5633 25.9764ZM49.8938 11.9948L49.589 11.5985L49.5447 11.637L49.8938 11.9948ZM14.3005 59.5267L13.8613 59.2876L13.8305 59.3559L14.3005 59.5267ZM8.87937 74.4431L8.40945 74.2723L8.39676 74.3124L8.87937 74.4431ZM5.26609 87.7827L4.78348 87.6519L4.77542 87.6865L5.26609 87.7827ZM1.45968 119.444L1.95937 119.461L1.95965 119.438L1.45968 119.444ZM6.20486 168.652L5.71506 168.753L5.71692 168.762L6.20486 168.652ZM2.51877 150.751L2.02108 150.799L2.02905 150.852L2.51877 150.751ZM0.937048 134.348L0.437355 134.33L0.439356 134.396L0.937048 134.348ZM11.3715 191.746L10.8836 191.855L10.9056 191.927L11.3715 191.746ZM63.7193 0.728572L60.1867 3.44606L60.7964 4.23867L64.329 1.52118L63.7193 0.728572ZM53.1216 8.88104L49.589 11.5985L50.1987 12.3911L53.7313 9.67365L53.1216 8.88104ZM49.5447 11.637L45.962 15.1323L46.6604 15.8481L50.243 12.3527L49.5447 11.637ZM38.7968 22.1231L35.2141 25.6185L35.9125 26.3343L39.4951 22.8389L38.7968 22.1231ZM35.1567 25.6854L32.0263 30.0598L32.8395 30.6418L35.9699 26.2673L35.1567 25.6854ZM25.7655 38.8086L22.6351 43.1831L23.4483 43.765L26.5787 39.3906L25.7655 38.8086ZM22.6026 43.2349L20.4173 47.2481L21.2955 47.7263L23.4808 43.7131L22.6026 43.2349ZM16.0466 55.2744L13.8613 59.2876L14.7396 59.7658L16.9249 55.7526L16.0466 55.2744ZM13.8305 59.3559L12.4753 63.085L13.4151 63.4266L14.7704 59.6975L13.8305 59.3559ZM9.76472 70.5432L8.40945 74.2723L9.3493 74.6139L10.7046 70.8848L9.76472 70.5432ZM8.39676 74.3124L7.49344 77.6472L8.45866 77.9087L9.36198 74.5738L8.39676 74.3124ZM5.6868 84.317L4.78348 87.6519L5.74869 87.9134L6.65202 84.5785L5.6868 84.317ZM4.77542 87.6865L3.79029 92.7136L4.77162 92.9059L5.75675 87.8788L4.77542 87.6865ZM1.82003 102.768L0.834904 107.795L1.81624 107.987L2.80137 102.96L1.82003 102.768ZM0.825605 107.897L0.859132 110.785L1.85906 110.773L1.82554 107.885L0.825605 107.897ZM0.926187 116.561L0.959714 119.45L1.95965 119.438L1.92612 116.55L0.926187 116.561ZM0.959987 119.426L0.829329 123.152L1.82871 123.187L1.95937 119.461L0.959987 119.426ZM0.568013 130.604L0.437355 134.33L1.43674 134.365L1.5674 130.639L0.568013 130.604ZM0.439356 134.396L0.834787 138.497L1.83017 138.401L1.43474 134.3L0.439356 134.396ZM1.62565 146.698L2.02108 150.799L3.01646 150.703L2.62103 146.602L1.62565 146.698ZM2.02905 150.852L2.95057 155.327L3.93002 155.125L3.0085 150.65L2.02905 150.852ZM4.79361 164.278L5.71513 168.753L6.69459 168.552L5.77306 164.076L4.79361 164.278ZM5.71692 168.762L7.00859 174.535L7.98446 174.317L6.6928 168.543L5.71692 168.762ZM9.59192 186.082L10.8836 191.855L11.8595 191.637L10.5678 185.863L9.59192 186.082ZM10.9056 191.927L13.0182 197.349L13.95 196.986L11.8374 191.564L10.9056 191.927ZM17.2433 208.191L19.3559 213.612L20.2876 213.249L18.1751 207.828L17.2433 208.191Z" fill="white"/>
</svg>
