<svg width="70" height="217" viewBox="0 0 70 217" fill="none" xmlns="http://www.w3.org/2000/svg">
<path d="M22.8165 216.719C24.0807 217.275 25.5556 216.7 26.1107 215.436L35.158 194.835C35.7132 193.571 35.1385 192.096 33.8743 191.541C32.6101 190.985 31.1352 191.56 30.58 192.824L22.538 211.136L4.22611 203.094C2.96194 202.539 1.48706 203.114 0.931873 204.378C0.376688 205.642 0.951436 207.117 2.21561 207.672L22.8165 216.719ZM5.32557 108.891L2.87223 108.41L2.82574 108.92L5.32557 108.891ZM27.0417 44.474L25.0086 43.0191L24.8461 43.2785L27.0417 44.474ZM39.5633 26.9764L37.8175 25.1869L37.5302 25.5215L39.5633 26.9764ZM53.8938 12.9948L52.3695 11.0133L52.148 11.2054L53.8938 12.9948ZM18.3005 60.5267L16.1049 59.3311L15.9508 59.6727L18.3005 60.5267ZM12.8794 75.4431L10.5297 74.5891L10.4663 74.7895L12.8794 75.4431ZM9.26609 88.7827L6.85304 88.129L6.81275 88.3019L9.26609 88.7827ZM5.45968 120.444L7.95814 120.531L7.95951 120.415L5.45968 120.444ZM10.2049 169.652L7.75623 170.157L7.76517 170.198L10.2049 169.652ZM6.51877 151.751L4.03031 151.991L4.07014 152.255L6.51877 151.751ZM4.93705 135.348L2.43858 135.26L2.44859 135.588L4.93705 135.348ZM15.3715 192.746L12.9318 193.292L13.0421 193.654L15.3715 192.746ZM66.4999 0.14335L62.9673 2.86084L66.0159 6.8239L69.5485 4.10641L66.4999 0.14335ZM55.9021 8.29582L52.3695 11.0133L55.4182 14.9764L58.9507 12.2589L55.9021 8.29582ZM52.148 11.2054L48.5654 14.7008L52.057 18.2796L55.6397 14.7843L52.148 11.2054ZM41.4001 21.6916L37.8175 25.1869L41.3091 28.7658L44.8918 25.2704L41.4001 21.6916ZM37.5302 25.5215L34.3998 29.8959L38.4659 32.8057L41.5963 28.4313L37.5302 25.5215ZM28.139 38.6447L25.0086 43.0191L29.0748 45.9289L32.2052 41.5545L28.139 38.6447ZM24.8461 43.2785L22.6608 47.2916L27.052 49.6828L29.2373 45.6696L24.8461 43.2785ZM18.2902 55.3179L16.1049 59.3311L20.496 61.7223L22.6814 57.7091L18.2902 55.3179ZM15.9508 59.6727L14.5955 63.4018L19.2948 65.1097L20.6501 61.3806L15.9508 59.6727ZM11.885 70.86L10.5297 74.5891L15.229 76.297L16.5843 72.5679L11.885 70.86ZM10.4663 74.7895L9.56301 78.1244L14.3891 79.4316L15.2924 76.0967L10.4663 74.7895ZM7.75636 84.7941L6.85304 88.129L11.6791 89.4363L12.5825 86.1014L7.75636 84.7941ZM6.81275 88.3019L5.82762 93.3289L10.7343 94.2905L11.7194 89.2634L6.81275 88.3019ZM3.85736 103.383L2.87223 108.41L7.77891 109.372L8.76404 104.345L3.85736 103.383ZM2.82574 108.92L2.85927 111.808L7.85893 111.75L7.8254 108.862L2.82574 108.92ZM2.92632 117.585L2.95985 120.473L7.95951 120.415L7.92598 117.526L2.92632 117.585ZM2.96122 120.356L2.83056 124.082L7.82749 124.257L7.95814 120.531L2.96122 120.356ZM2.56924 131.534L2.43858 135.26L7.43551 135.436L7.56617 131.709L2.56924 131.534ZM2.44859 135.588L2.84402 139.689L7.82094 139.209L7.4255 135.108L2.44859 135.588ZM3.63488 147.89L4.03031 151.991L9.00723 151.511L8.6118 147.41L3.63488 147.89ZM4.07014 152.255L4.99166 156.73L9.88892 155.722L8.9674 151.247L4.07014 152.255ZM6.83471 165.681L7.75623 170.157L12.6535 169.148L11.732 164.673L6.83471 165.681ZM7.76517 170.198L9.05684 175.972L13.9362 174.88L12.6445 169.107L7.76517 170.198ZM11.6402 187.518L12.9318 193.292L17.8112 192.2L16.5195 186.427L11.6402 187.518ZM13.0421 193.654L15.1547 199.075L19.8135 197.259L17.7009 191.838L13.0421 193.654ZM19.3798 209.917L21.4924 215.338L26.1511 213.523L24.0386 208.102L19.3798 209.917Z" fill="white"/>
</svg>
