<svg width="25" height="109" viewBox="0 0 25 109" fill="none" xmlns="http://www.w3.org/2000/svg">
<g filter="url(#filter0_d_22_8)">
<path d="M5.00024 100.847L14.6602 94.5211L4.35166 89.3184L5.00024 100.847ZM20.0002 50.3574L20.997 50.4383L21.0002 50.346L20.0002 50.3574ZM12.7801 13.03L13.711 12.6646L13.6664 12.5669L12.7801 13.03ZM17.9093 28.3684L18.8918 28.1819L18.8765 28.1142L17.9093 28.3684ZM19.1696 35.0069L20.165 34.9119L20.152 34.8204L19.1696 35.0069ZM12.6771 84.2966L13.5985 84.6854L13.6232 84.6205L12.6771 84.2966ZM18.4348 64.0931L19.4085 64.321L19.4241 64.2391L18.4348 64.0931ZM9.74191 7.21574L10.6282 6.75261L10.5676 6.65162L9.74191 7.21574ZM16.1022 21.4928L17.0693 21.2386L17.033 21.1274L16.1022 21.4928ZM15.9311 74.7932L16.8772 75.1171L16.9048 75.021L15.9311 74.7932ZM19.9134 42.8024L20.9133 42.7909L20.9089 42.7074L19.9134 42.8024ZM19.4365 57.3055L20.4258 57.4515L20.4333 57.3863L19.4365 57.3055ZM9.22616 92.474L10.1189 92.9246L10.1475 92.8628L9.22616 92.474ZM5.65299 3.00342C5.96454 3.45944 6.58678 3.57656 7.0428 3.26501C7.49882 2.95346 7.61594 2.33122 7.30439 1.8752L5.65299 3.00342ZM9.47987 5.05948C9.16832 4.60346 8.54608 4.48635 8.09006 4.7979C7.63404 5.10945 7.51692 5.73168 7.82847 6.18771L9.47987 5.05948ZM9.61518 9.13244C9.87095 9.62192 10.4751 9.81138 10.9646 9.5556C11.4541 9.29982 11.6435 8.69567 11.3878 8.20618L9.61518 9.13244ZM12.9069 11.1133C12.6511 10.6238 12.0469 10.4344 11.5575 10.6902C11.068 10.9459 10.8785 11.5501 11.1343 12.0396L12.9069 11.1133ZM12.6798 15.5111C12.8816 16.0252 13.462 16.2784 13.976 16.0766C14.4901 15.8748 14.7433 15.2944 14.5415 14.7803L12.6798 15.5111ZM16.2025 19.0117C16.0007 18.4976 15.4204 18.2445 14.9063 18.4463C14.3922 18.6481 14.139 19.2284 14.3408 19.7425L16.2025 19.0117ZM15.5868 23.4659C15.7272 24.0001 16.274 24.3193 16.8082 24.1789C17.3423 24.0385 17.6615 23.4917 17.5211 22.9575L15.5868 23.4659ZM18.4247 26.3953C18.2843 25.8612 17.7375 25.542 17.2033 25.6824C16.6692 25.8228 16.35 26.3696 16.4904 26.9037L18.4247 26.3953ZM17.2419 30.2146C17.3449 30.7572 17.8683 31.1135 18.4109 31.0105C18.9535 30.9075 19.3098 30.3841 19.2068 29.8415L17.2419 30.2146ZM19.8369 33.1608C19.7339 32.6182 19.2106 32.2619 18.668 32.3649C18.1254 32.4679 17.769 32.9912 17.872 33.5338L19.8369 33.1608ZM18.36 37.0508C18.4125 37.6006 18.9007 38.0038 19.4505 37.9513C20.0003 37.8988 20.4035 37.4106 20.351 36.8608L18.36 37.0508ZM20.7229 40.7586C20.6705 40.2088 20.1822 39.8056 19.6325 39.8581C19.0827 39.9105 18.6795 40.3988 18.732 40.9486L20.7229 40.7586ZM18.9352 44.7027C18.9415 45.2549 19.3944 45.6975 19.9466 45.6911C20.4989 45.6848 20.9414 45.2319 20.935 44.6797L18.9352 44.7027ZM20.9785 48.4572C20.9721 47.905 20.5193 47.4624 19.967 47.4688C19.4148 47.4751 18.9723 47.9279 18.9786 48.4802L20.9785 48.4572ZM18.8626 52.0136C18.8179 52.5641 19.228 53.0465 19.7784 53.0912C20.3289 53.1358 20.8114 52.7258 20.856 52.1753L18.8626 52.0136ZM20.5742 55.6493C20.6188 55.0988 20.2088 54.6164 19.6583 54.5717C19.1078 54.5271 18.6254 54.9371 18.5807 55.4876L20.5742 55.6493ZM18.1968 58.8564C18.1162 59.4027 18.4937 59.911 19.0401 59.9917C19.5865 60.0723 20.0947 59.6947 20.1754 59.1484L18.1968 58.8564ZM19.6745 62.5422C19.7552 61.9958 19.3776 61.4876 18.8312 61.4069C18.2849 61.3263 17.7766 61.7038 17.6959 62.2502L19.6745 62.5422ZM16.8352 66.5403C16.7094 67.0781 17.0433 67.616 17.5811 67.7418C18.1188 67.8677 18.6568 67.5337 18.7826 66.996L16.8352 66.5403ZM17.5307 72.346C17.6566 71.8082 17.3226 71.2703 16.7849 71.1445C16.2471 71.0186 15.7092 71.3526 15.5833 71.8903L17.5307 72.346ZM14.1716 76.8451C13.9926 77.3676 14.2712 77.9362 14.7937 78.1151C15.3162 78.294 15.8848 78.0155 16.0637 77.493L14.1716 76.8451ZM14.4367 82.2447C14.6156 81.7222 14.3371 81.1536 13.8146 80.9747C13.2921 80.7958 12.7235 81.0743 12.5446 81.5968L14.4367 82.2447ZM10.8931 85.9521C10.6783 86.461 10.9168 87.0475 11.4256 87.2623C11.9344 87.477 12.521 87.2386 12.7357 86.7298L10.8931 85.9521ZM11.0102 90.8185C11.225 90.3096 10.9865 89.7231 10.4777 89.5084C9.96888 89.2936 9.38232 89.532 9.16759 90.0409L11.0102 90.8185ZM7.27694 94.1167C7.0281 94.6098 7.22607 95.2112 7.71912 95.4601C8.21216 95.7089 8.81358 95.5109 9.06243 95.0179L7.27694 94.1167ZM6.94947 99.2044C7.19831 98.7114 7.00034 98.11 6.50729 97.8611C6.01424 97.6123 5.41282 97.8103 5.16398 98.3033L6.94947 99.2044ZM4.56525 1.41128L5.65299 3.00342L7.30439 1.8752L6.21665 0.283057L4.56525 1.41128ZM7.82847 6.18771L8.91621 7.77985L10.5676 6.65162L9.47987 5.05948L7.82847 6.18771ZM8.85562 7.67886L9.61518 9.13244L11.3878 8.20618L10.6282 6.75261L8.85562 7.67886ZM11.1343 12.0396L11.8938 13.4932L13.6664 12.5669L12.9069 11.1133L11.1343 12.0396ZM11.8493 13.3954L12.6798 15.5111L14.5415 14.7803L13.711 12.6646L11.8493 13.3954ZM14.3408 19.7425L15.1713 21.8582L17.033 21.1274L16.2025 19.0117L14.3408 19.7425ZM15.135 21.747L15.5868 23.4659L17.5211 22.9575L17.0693 21.2386L15.135 21.747ZM16.4904 26.9037L16.9421 28.6226L18.8765 28.1142L18.4247 26.3953L16.4904 26.9037ZM16.9268 28.5549L17.2419 30.2146L19.2068 29.8415L18.8918 28.1819L16.9268 28.5549ZM17.872 33.5338L18.1871 35.1934L20.152 34.8204L19.8369 33.1608L17.872 33.5338ZM18.1741 35.1019L18.36 37.0508L20.351 36.8608L20.165 34.9119L18.1741 35.1019ZM18.732 40.9486L18.9179 42.8974L20.9089 42.7074L20.7229 40.7586L18.732 40.9486ZM18.9135 42.8139L18.9352 44.7027L20.935 44.6797L20.9133 42.7909L18.9135 42.8139ZM18.9786 48.4802L19.0003 50.3689L21.0002 50.346L20.9785 48.4572L18.9786 48.4802ZM19.0035 50.2766L18.8626 52.0136L20.856 52.1753L20.997 50.4383L19.0035 50.2766ZM18.5807 55.4876L18.4398 57.2246L20.4333 57.3863L20.5742 55.6493L18.5807 55.4876ZM18.4472 57.1595L18.1968 58.8564L20.1754 59.1484L20.4258 57.4515L18.4472 57.1595ZM17.6959 62.2502L17.4455 63.9471L19.4241 64.2391L19.6745 62.5422L17.6959 62.2502ZM17.4611 63.8653L16.8352 66.5403L18.7826 66.996L19.4085 64.321L17.4611 63.8653ZM15.5833 71.8903L14.9574 74.5654L16.9048 75.021L17.5307 72.346L15.5833 71.8903ZM14.9851 74.4692L14.1716 76.8451L16.0637 77.493L16.8772 75.1171L14.9851 74.4692ZM12.5446 81.5968L11.7311 83.9727L13.6232 84.6205L14.4367 82.2447L12.5446 81.5968ZM11.7558 83.9078L10.8931 85.9521L12.7357 86.7298L13.5985 84.6854L11.7558 83.9078ZM9.16759 90.0409L8.30484 92.0852L10.1475 92.8628L11.0102 90.8185L9.16759 90.0409ZM8.33342 92.0235L7.27694 94.1167L9.06243 95.0179L10.1189 92.9246L8.33342 92.0235Z" fill="#4078F2"/>
</g>
<defs>
<filter id="filter0_d_22_8" x="0.351562" y="0.282959" width="24.6487" height="108.564" filterUnits="userSpaceOnUse" color-interpolation-filters="sRGB">
<feFlood flood-opacity="0" result="BackgroundImageFix"/>
<feColorMatrix in="SourceAlpha" type="matrix" values="0 0 0 0 0 0 0 0 0 0 0 0 0 0 0 0 0 0 127 0" result="hardAlpha"/>
<feOffset dy="4"/>
<feGaussianBlur stdDeviation="2"/>
<feComposite in2="hardAlpha" operator="out"/>
<feColorMatrix type="matrix" values="0 0 0 0 0 0 0 0 0 0 0 0 0 0 0 0 0 0 0.25 0"/>
<feBlend mode="normal" in2="BackgroundImageFix" result="effect1_dropShadow_22_8"/>
<feBlend mode="normal" in="SourceGraphic" in2="effect1_dropShadow_22_8" result="shape"/>
</filter>
</defs>
</svg>
